<?xml version="1.0" encoding="UTF-8"?><svg id="Layer_1" xmlns="http://www.w3.org/2000/svg" viewBox="0 0 80 80"><defs><style>.cls-1{fill:#f3ba2f;}</style></defs><polygon class="cls-1" points="25.43 34.01 40 19.45 54.58 34.02 63.05 25.54 40 2.49 16.95 25.54 25.43 34.01"/><rect class="cls-1" x="4.97" y="34" width="11.99" height="11.99" transform="translate(-25.07 19.47) rotate(-45)"/><polygon class="cls-1" points="25.43 45.99 40 60.55 54.58 45.98 63.06 54.45 63.05 54.46 40 77.51 16.95 54.46 16.94 54.45 25.43 45.99"/><rect class="cls-1" x="63.04" y="34.01" width="11.99" height="11.99" transform="translate(-8.07 60.53) rotate(-45)"/><polygon class="cls-1" points="48.6 40 48.6 40 40 31.39 33.64 37.75 33.64 37.75 32.91 38.48 31.41 39.99 31.41 39.99 31.39 40 31.41 40.01 40 48.61 48.6 40 48.61 40 48.6 40"/></svg>