<?xml version="1.0" encoding="UTF-8"?><svg id="Layer_1" xmlns="http://www.w3.org/2000/svg" viewBox="0 0 70 80"><defs><style>.cls-1{fill:#03316c;}.cls-2{fill:#fff;}</style></defs><path class="cls-2" d="M35,2.49L2.51,21.25v37.51l32.49,18.75,32.49-18.75V21.25L35,2.49h0ZM35,2.49L2.51,21.25v37.51l32.49,18.75,32.49-18.75V21.25L35,2.49h0Z"/><path class="cls-1" d="M47.83,62.86h-4.62l-5.53-5.08v-2.6l5.73-5.47v-8.66l7.49-4.89,8.53,6.45-11.59,20.25h0ZM28.68,49.18l.85-8.14-2.8-7.29h16.54l-2.74,7.29.78,8.14h-12.63ZM32.46,57.78l-5.54,5.14h-4.69l-11.66-20.32,8.6-6.38,7.55,4.82v8.66l5.73,5.47v2.61h0ZM22.17,18.71h25.59l3.06,13.02h-31.65l2.99-13.02h0ZM35,2.49L2.51,21.25v37.51l32.49,18.75,32.49-18.75V21.25L35,2.49h0Z"/></svg>