<?xml version="1.0" encoding="UTF-8"?><svg id="Layer_1" xmlns="http://www.w3.org/2000/svg" viewBox="0 0 85 80"><defs><style>.cls-1{fill:#d5bfb2;stroke:#d5bfb2;}.cls-1,.cls-2,.cls-3,.cls-4,.cls-5,.cls-6,.cls-7,.cls-8,.cls-9,.cls-10{stroke-linecap:round;stroke-linejoin:round;stroke-width:.02px;}.cls-2{fill:#e17726;stroke:#e17726;}.cls-3{fill:#233447;stroke:#233447;}.cls-4{fill:#e27625;stroke:#e27625;}.cls-5{fill:#161616;stroke:#161616;}.cls-6{fill:#763e1a;stroke:#763e1a;}.cls-7{fill:#e27525;stroke:#e27525;}.cls-8{fill:#cc6228;stroke:#cc6228;}.cls-9{fill:#c0ac9d;stroke:#c0ac9d;}.cls-10{fill:#f5841f;stroke:#f5841f;}</style></defs><polygon class="cls-2" points="77.75 3.82 47.18 26.43 52.87 13.1 77.75 3.82"/><polygon class="cls-4" points="7.25 3.82 37.54 26.64 32.13 13.1 7.25 3.82"/><polygon class="cls-4" points="66.74 56.25 58.61 68.68 76.03 73.47 81.01 56.52 66.74 56.25"/><polygon class="cls-4" points="4.02 56.52 8.97 73.47 26.36 68.68 18.26 56.25 4.02 56.52"/><polygon class="cls-4" points="25.42 35.27 20.58 42.56 37.82 43.35 37.24 24.8 25.42 35.27"/><polygon class="cls-4" points="59.58 35.27 47.58 24.59 47.18 43.35 64.42 42.56 59.58 35.27"/><polygon class="cls-4" points="26.36 68.68 36.79 63.64 27.81 56.65 26.36 68.68"/><polygon class="cls-4" points="48.21 63.64 58.61 68.68 57.19 56.65 48.21 63.64"/><polygon class="cls-1" points="58.61 68.68 48.21 63.64 49.06 70.39 48.97 73.26 58.61 68.68"/><polygon class="cls-1" points="26.36 68.68 36.03 73.26 35.97 70.39 36.79 63.64 26.36 68.68"/><polygon class="cls-3" points="36.21 52.18 27.57 49.65 33.67 46.84 36.21 52.18"/><polygon class="cls-3" points="48.79 52.18 51.33 46.84 57.47 49.65 48.79 52.18"/><polygon class="cls-8" points="26.36 68.68 27.87 56.25 18.26 56.52 26.36 68.68"/><polygon class="cls-8" points="57.13 56.25 58.61 68.68 66.74 56.52 57.13 56.25"/><polygon class="cls-8" points="64.42 42.56 47.18 43.35 48.79 52.18 51.33 46.84 57.47 49.65 64.42 42.56"/><polygon class="cls-8" points="27.57 49.65 33.67 46.84 36.21 52.18 37.82 43.35 20.58 42.56 27.57 49.65"/><polygon class="cls-7" points="20.58 42.56 27.81 56.65 27.57 49.65 20.58 42.56"/><polygon class="cls-7" points="57.47 49.65 57.19 56.65 64.42 42.56 57.47 49.65"/><polygon class="cls-7" points="37.82 43.35 36.21 52.18 38.24 62.61 38.69 48.87 37.82 43.35"/><polygon class="cls-7" points="47.18 43.35 46.34 48.83 46.76 62.61 48.79 52.18 47.18 43.35"/><polygon class="cls-10" points="48.79 52.18 46.76 62.61 48.21 63.64 57.19 56.65 57.47 49.65 48.79 52.18"/><polygon class="cls-10" points="27.57 49.65 27.81 56.65 36.79 63.64 38.24 62.61 36.21 52.18 27.57 49.65"/><polygon class="cls-9" points="48.97 73.26 49.06 70.39 48.27 69.73 36.73 69.73 35.97 70.39 36.03 73.26 26.36 68.68 29.74 71.45 36.6 76.18 48.36 76.18 55.26 71.45 58.61 68.68 48.97 73.26"/><polygon class="cls-5" points="48.21 63.64 46.76 62.61 38.24 62.61 36.79 63.64 35.97 70.39 36.73 69.73 48.27 69.73 49.06 70.39 48.21 63.64"/><polygon class="cls-6" points="79.05 27.91 81.62 15.42 77.75 3.82 48.21 25.68 59.58 35.27 75.63 39.94 79.17 35.81 77.63 34.69 80.08 32.46 78.2 31.02 80.65 29.14 79.05 27.91"/><polygon class="cls-6" points="3.38 15.42 5.98 27.91 4.32 29.14 6.8 31.02 4.92 32.46 7.37 34.69 5.83 35.81 9.37 39.94 25.42 35.27 36.79 25.68 7.25 3.82 3.38 15.42"/><polygon class="cls-10" points="75.63 39.94 59.58 35.27 64.42 42.56 57.19 56.65 66.74 56.52 81.01 56.52 75.63 39.94"/><polygon class="cls-10" points="25.42 35.27 9.37 39.94 4.02 56.52 18.26 56.52 27.81 56.65 20.58 42.56 25.42 35.27"/><polygon class="cls-10" points="47.18 43.35 48.21 25.68 52.87 13.1 32.13 13.1 36.79 25.68 37.82 43.35 38.21 48.89 38.24 62.61 46.76 62.61 46.79 48.89 47.18 43.35"/></svg>