<?xml version="1.0" encoding="UTF-8"?><svg id="Layer_1" xmlns="http://www.w3.org/2000/svg" viewBox="0 0 110 80"><path d="M105.73,7.91c-.15-.23-.37-.39-.64-.44l-2.48-.53c-.49,0-.86.33-.93.77l-6.4,33.59c-.12.43-.81.35-.78-.12h0s1.97-34.17,1.97-34.17c0-.49-.36-.88-.82-.92-.21-.03-.45-.04-.71-.04-.46,0-.83.35-.88.81l-3.4,39.47c-.03.49-.7.47-.75.02l-2.15-38.98c-.04-.41-.37-.73-.91-.73-.01,0-.52.08-.52.08-.38.04-.67.38-.67.78l.64,41.69c-.01.46-.67.51-.76.04l-6.92-39.31c-.06-.44-.43-.76-.87-.76-.11,0-.22.02-.44.11-.42.17-.65.56-.57.93l5.28,40.99c.04.46-.62.59-.76.15l-11.88-36.63c-.14-.35-.45-.56-.81-.56-.18,0-.35.06-.49.16-.24.16-.37.41-.34.91l9.69,36.69c.09.44-.51.65-.73.24l-.02-.04-15.28-30.5c-.12-.24-.36-.39-.63-.39-.21,0-.4.09-.52.23-.13.12-.2.3-.2.49,0,.04.04.24.05.28l12.83,29.36c.2.42-.39.76-.67.36l-.04-.06-16.3-22.66c-.13-.16-.31-.24-.51-.24-.06,0-.33.11-.37.14-.15.1-.23.26-.23.46,0,.06.07.3.1.35l12.35,18.77c.25.39-.28.81-.62.48,0,0-38.66-38.9-38.68-38.9h0c-1.36-1.29-3.14-2.01-5-2.01-3.28,0-6.06,2.25-6.77,5.47l-12.09,57.61c-.06.26,0,.54.14.76.15.23.37.39.64.44l2.48.53c.48,0,.86-.33.93-.77l6.39-33.58c.11-.45.81-.36.79.11l-1.97,34.17c0,.49.36.88.83.92.18.03.38.03.56.03h.16c.46,0,.83-.35.88-.81l3.4-39.46c.03-.51.73-.49.76,0l2.14,38.96c.04.41.37.73.91.73.01,0,.52-.08.52-.08.38-.04.67-.38.67-.78l-.65-41.68c0-.49.67-.54.76-.06l6.92,39.31c.06.44.43.76.87.76.11,0,.22-.02.44-.11.41-.16.65-.55.57-.93l-5.29-40.97c-.06-.48.62-.62.76-.17h0s11.88,36.63,11.88,36.63c.14.35.45.57.81.57.18,0,.35-.06.49-.16.24-.16.37-.41.34-.92l-9.69-36.68c-.11-.46.51-.68.73-.26l15.29,30.54c.12.24.36.39.63.39.21,0,.4-.09.52-.23.12-.12.2-.3.2-.49,0-.04-.04-.24-.05-.28l-12.83-29.36c-.2-.42.39-.76.67-.36l.04.05,16.31,22.68c.13.16.31.24.51.24.06,0,.33-.11.37-.14.16-.1.24-.26.24-.46,0-.06-.07-.3-.1-.35l-12.35-18.77c-.25-.39.28-.81.61-.49,37.01,36.89,38.65,38.9,38.69,38.9h0c1.36,1.29,3.14,2.01,5,2.01,3.27,0,6.05-2.25,6.77-5.47l12.09-57.58c.06-.26,0-.54-.14-.76v.02s-.02-.01-.02-.01Z"/></svg>