<?xml version="1.0" encoding="UTF-8"?><svg id="Layer_1" xmlns="http://www.w3.org/2000/svg" viewBox="0 0 75 80"><defs><style>.cls-1{fill:#02050a;}</style></defs><path class="cls-1" d="M37.75,42.88l4.98-4.83,9.29,3.05c6.08,2.03,9.12,5.76,9.12,11.01,0,3.98-1.52,6.6-4.56,9.99l-.93,1.02.34-2.37c1.35-8.64-1.18-12.36-9.54-15.07l-8.7-2.79ZM25.26,13.33l25.33,8.47-5.49,5.25-13.17-4.4c-4.56-1.52-6.08-3.98-6.67-9.14v-.17ZM23.74,56.34l5.74-5.5,10.81,3.56c5.66,1.86,7.6,4.32,7.01,10.5l-23.55-8.55ZM16.48,31.79c0-1.61.84-3.13,2.28-4.4,1.52,2.2,4.14,4.15,8.27,5.5l8.95,2.96-4.98,4.83-8.78-2.88c-4.05-1.35-5.74-3.39-5.74-6.01ZM3.48,67.18l3.71,3.98,5.99-5.5,29.8,10.58c18.57-12.36,28.54-20.74,28.54-31.07,0-6.86-4.05-10.67-13-13.63l-6.75-2.29,18.49-17.78-3.71-3.98-5.49,4.83L35.14,3.76c-8.02,2.62-18.15,10.33-18.15,18.03,0,.85.08,1.69.34,2.62-6.67,3.81-9.37,7.37-9.37,11.77,0,4.15,2.2,8.3,9.2,10.58l5.57,1.86L3.48,67.18Z"/></svg>