<?xml version="1.0" encoding="UTF-8"?><svg id="Layer_1" xmlns="http://www.w3.org/2000/svg" viewBox="0 0 60 80"><path d="M1.46,22.81c0-3.92-.23-7.73.06-11.51.31-4.02,3.5-6.83,7.56-6.97,13.66-.33,27.35-.14,41.01-.03,10.66.32,8.13,10.99,8.34,18.51H1.46Z"/><path d="M39.56,75.84v-37.21h18.96c.22,8.89.03,17.78.07,26.67-.01,2.38.02,4.78-1.43,6.89-1.54,2.24-3.63,3.57-6.35,3.63-3.69.08-7.39.02-11.25.02h0Z"/><path d="M20.44,75.7v-37.21H1.48c-.22,8.89-.03,17.78-.07,26.67.01,2.38-.02,4.78,1.43,6.89,1.54,2.24,3.63,3.57,6.35,3.63,3.69.08,7.39.02,11.25.02h0Z"/></svg>