<?xml version="1.0" encoding="UTF-8"?><svg id="Layer_1" xmlns="http://www.w3.org/2000/svg" viewBox="0 0 60 80"><defs><style>.cls-1{fill:#49cc68;}</style></defs><path class="cls-1" d="M49.23,44.12c-1.55,3.53-3.59,6.82-6.07,9.77,1.67-6.63.83-15.17-2.78-23.47-1.82-4.18-4.31-8.04-7.37-11.41,4.59-3.71,9.37-4.92,13.07-3.21,2.37,1.09,4.17,3.34,5.28,6.48,2.06,5.96,1.26,14.13-2.17,21.85h.03ZM10.72,44.12c-3.4-7.72-4.17-15.85-2.14-21.85,1.08-3.14,2.91-5.38,5.28-6.48,3.7-1.71,8.48-.5,13.07,3.21-3.07,3.37-5.56,7.23-7.38,11.41-3.65,8.34-4.46,16.85-2.78,23.46-2.48-2.94-4.53-6.23-6.07-9.76ZM33.42,60.87c-2.18,1.02-4.7,1.02-6.88,0-7.12-3.28-8.56-16.46-3.14-28.76,1.63-3.76,3.86-7.21,6.62-10.25,2.74,3.03,4.97,6.49,6.59,10.25,5.38,12.3,3.94,25.48-3.18,28.76ZM43.08,10.86c-4.21-.17-8.81,1.67-13.1,5.22-4.3-3.55-8.9-5.38-13.11-5.22,7.84-5.58,18.36-5.58,26.21,0ZM55.33,20.96v-.13C50.74,6.85,35.69-.77,21.7,3.82,13.61,6.47,7.28,12.82,4.66,20.92c0,.02,0,.03,0,.05-2.35,6.92-1.5,16.18,2.3,24.81,5.19,11.8,14.61,20.03,22.94,20.03h.24c8.34,0,17.76-8.2,22.95-20.03,3.76-8.61,4.61-17.89,2.24-24.81ZM37.12,72.3c-2.26.68-4.6,1.03-6.95,1.04h-.33c-2.37,0-4.73-.37-6.99-1.06-1.1-.33-2.27.3-2.59,1.41-.33,1.11.31,2.27,1.41,2.59,2.65.8,5.41,1.21,8.18,1.23h.33c2.75-.01,5.49-.42,8.13-1.22,1.09-.38,1.66-1.57,1.28-2.66-.36-1.01-1.41-1.58-2.45-1.34Z"/></svg>