<?xml version="1.0" encoding="UTF-8"?><svg id="Layer_1" xmlns="http://www.w3.org/2000/svg" viewBox="0 0 500 500"><defs><style>.cls-1{fill:#121826;}</style></defs><path class="cls-1" d="M354.69,488.54l133.31-133.3c5.46-5.46,2.62-14.8-4.95-16.3l-165-32.6c-.64-.13-1.28-.19-1.91-.19-5.88,0-10.61,5.39-9.45,11.47l31.69,165.9c.94,4.91,5.17,7.85,9.53,7.85,2.4,0,4.83-.89,6.78-2.84Z"/><path class="cls-1" d="M291.65,248.88c0-23.96-16.64-43.16-41.88-43.16s-41.88,19.2-41.88,43.16,16.46,43.52,41.88,43.52,41.88-19.02,41.88-43.52Z"/><path class="cls-1" d="M287.7,372.55c-11.73,3.45-24.39,5.35-37.92,5.35-75.48,0-124.35-56.47-124.35-129.23s48.87-128.15,124.35-128.15,124.34,57.01,124.34,128.15c0,13.39-1.7,26.22-4.9,38.26l73.05,14.43c4.3-16.71,6.78-34.3,6.78-52.7,0-111.85-84.7-197.1-199.27-197.1S49.96,136.82,49.96,248.67s84.7,198.19,199.82,198.19c17.8,0,34.77-2.3,50.93-6.22l-13.01-68.09Z"/></svg>